<svg width="138" height="132" viewBox="0 0 138 132" fill="none" xmlns="http://www.w3.org/2000/svg">
<ellipse cx="46.7425" cy="37.8925" rx="28.7425" ry="27.0538" fill="#BCBBBB"/>
<ellipse cx="75.485" cy="46.6667" rx="28.7425" ry="27.0538" fill="#BCBBBB"/>
<ellipse cx="85.3336" cy="32.5161" rx="34.6178" ry="32.5161" fill="#BCBBBB"/>
<ellipse cx="109.257" cy="52.5161" rx="28.7425" ry="27.0538" fill="#BCBBBB"/>
<ellipse cx="28.7425" cy="60.8925" rx="28.7425" ry="27.0538" fill="white"/>
<ellipse cx="57.485" cy="69.6667" rx="28.7425" ry="27.0538" fill="white"/>
<ellipse cx="67.3336" cy="55.5161" rx="34.6178" ry="32.5161" fill="white"/>
<ellipse cx="91.2575" cy="75.5161" rx="28.7425" ry="27.0538" fill="white"/>
<path d="M66.0084 80H48.9367C48.4963 80 48.1077 80.2882 47.9798 80.7097L40.8061 104.354C40.6113 104.996 41.0919 105.644 41.7631 105.644H48.1292C48.8376 105.644 49.3214 106.36 49.0569 107.017L42.1743 124.115C41.7315 125.215 43.2317 126.034 43.9176 125.067L62.6365 98.6744C63.1062 98.0122 62.6327 97.0959 61.8208 97.0959H57.2599C56.4374 97.0959 55.9666 96.1583 56.4578 95.4986L66.8105 81.5973C67.3017 80.9376 66.8309 80 66.0084 80Z" fill="#FFCA0F" stroke="#FFCA0F" stroke-linecap="round" stroke-linejoin="round"/>
</svg>
