<svg width="106" height="108" viewBox="0 0 106 108" fill="none" xmlns="http://www.w3.org/2000/svg">
<line x1="14.7326" y1="87.4953" x2="19.8678" y2="78.805" stroke="#E5E5E5" stroke-width="8" stroke-linecap="round" stroke-linejoin="round"/>
<line x1="51" y1="104" x2="51" y2="4" stroke="#E5E5E5" stroke-width="8" stroke-linecap="round" stroke-linejoin="round"/>
<line x1="9.84321" y1="77.8354" x2="96.1206" y2="27.0108" stroke="#E5E5E5" stroke-width="8" stroke-linecap="round" stroke-linejoin="round"/>
<line x1="68.862" y1="10.1618" x2="54.3605" y2="24.2197" stroke="#E5E5E5" stroke-width="8" stroke-linecap="round" stroke-linejoin="round"/>
<line x1="4" y1="-4" x2="24.1971" y2="-4" transform="matrix(0.718003 0.69604 0.69604 -0.718003 34.2864 4.50562)" stroke="#E5E5E5" stroke-width="8" stroke-linecap="round" stroke-linejoin="round"/>
<line x1="24.4756" y1="15.8582" x2="28.9995" y2="35.5421" stroke="#E5E5E5" stroke-width="8" stroke-linecap="round" stroke-linejoin="round"/>
<line x1="4" y1="-4" x2="24.1971" y2="-4" transform="matrix(0.967165 -0.254148 -0.254148 -0.967165 2.64297 41.6151)" stroke="#E5E5E5" stroke-width="8" stroke-linecap="round" stroke-linejoin="round"/>
<line x1="4" y1="-4" x2="24.1971" y2="-4" transform="matrix(-0.967165 0.254148 0.254148 0.967165 106 63.6177)" stroke="#E5E5E5" stroke-width="8" stroke-linecap="round" stroke-linejoin="round"/>
<line x1="84.1674" y1="87.5723" x2="79.6435" y2="67.8884" stroke="#E5E5E5" stroke-width="8" stroke-linecap="round" stroke-linejoin="round"/>
<line x1="98.0313" y1="45.2284" x2="78.3006" y2="40.9135" stroke="#E5E5E5" stroke-width="8" stroke-linecap="round" stroke-linejoin="round"/>
<line x1="4" y1="-4" x2="24.1971" y2="-4" transform="matrix(-0.183199 0.983076 0.983076 0.183199 83.6342 14.1891)" stroke="#E5E5E5" stroke-width="8" stroke-linecap="round" stroke-linejoin="round"/>
<line x1="4" y1="-4" x2="24.1971" y2="-4" transform="matrix(0.183199 -0.983076 -0.983076 -0.183199 17.7997 93.5493)" stroke="#E5E5E5" stroke-width="8" stroke-linecap="round" stroke-linejoin="round"/>
<line x1="5.2049" y1="62.7077" x2="24.9356" y2="67.0226" stroke="#E5E5E5" stroke-width="8" stroke-linecap="round" stroke-linejoin="round"/>
<line x1="13.8391" y1="28.0041" x2="100.23" y2="78.6351" stroke="#E5E5E5" stroke-width="8" stroke-linecap="round" stroke-linejoin="round"/>
</svg>
